<svg version="1.1" id="Layer_1" xmlns="http://www.w3.org/2000/svg" xmlns:xlink="http://www.w3.org/1999/xlink" x="0px" y="0px"
	 width="100%" viewBox="0 0 500 500" enable-background="new 0 0 500 500" xml:space="preserve">
<path fill="#000000" opacity="1.000000" stroke="none" 
	d="
M278.000000,501.000000 
	C185.333359,501.000000 93.166710,501.000000 1.000049,501.000000 
	C1.000033,334.333405 1.000033,167.666794 1.000016,1.000139 
	C167.666565,1.000093 334.333130,1.000093 500.999756,1.000046 
	C500.999847,167.666519 500.999847,334.333038 500.999939,500.999786 
	C426.833344,501.000000 352.666656,501.000000 278.000000,501.000000 
M366.137421,362.260315 
	C366.320312,362.541046 366.573120,362.725891 367.440399,363.115051 
	C371.819733,361.510040 375.254852,363.143646 378.533356,366.033142 
	C380.756317,367.992310 383.318512,369.574005 385.770294,371.264618 
	C391.798553,375.421326 399.758423,374.485718 403.651550,368.526428 
	C405.302185,365.999756 405.353455,362.428253 405.762939,360.798767 
	C408.382324,359.020996 410.292023,358.014893 411.827087,356.601776 
	C413.376617,355.175385 414.764801,353.467621 415.822144,351.649658 
	C416.541168,350.413361 417.197266,347.747528 416.792938,347.500092 
	C415.309326,346.592285 413.390472,346.210327 411.597473,346.047058 
	C409.876251,345.890289 407.624329,347.005096 406.445862,346.249908 
	C401.879303,343.323547 397.367676,340.167511 393.464508,336.438660 
	C392.311676,335.337280 392.644592,331.866760 393.343567,329.843628 
	C394.250549,327.218262 396.159576,328.323914 398.161926,329.420593 
	C402.073730,331.562927 406.239197,333.249420 410.330780,335.054047 
	C414.009888,336.676758 417.730713,338.204987 421.701324,339.888641 
	C424.021820,334.858582 426.004578,330.560577 427.869141,326.518829 
	C424.010101,321.929779 421.367523,325.552551 418.772675,327.064362 
	C415.675629,325.627594 412.878845,324.192352 409.977814,323.013672 
	C404.366974,320.734039 397.625610,319.563599 399.323822,310.852081 
	C409.551666,313.737274 419.938812,316.667450 431.239014,319.855164 
	C431.869049,316.007202 432.438568,312.528931 433.115631,308.393860 
	C437.989685,306.326935 438.778839,293.642670 434.542664,289.687347 
	C429.177765,284.678223 423.026581,281.594543 416.002258,281.067749 
	C406.581879,280.361206 400.953583,282.121552 399.974213,294.801727 
	C399.879883,296.023254 399.399811,297.214996 399.077240,298.506866 
	C394.583527,297.686188 392.616089,295.541534 393.951416,291.458130 
	C394.650482,289.320404 396.350708,287.453491 396.775604,285.301727 
	C397.079407,283.763367 396.505463,281.085144 395.438660,280.483215 
	C394.052917,279.701355 391.034637,279.710907 390.028625,280.705078 
	C384.245331,286.420258 385.657043,294.123596 386.260773,300.949799 
	C386.527557,303.966583 391.116150,306.598511 393.732117,309.415009 
	C393.948334,309.647827 394.083008,309.956390 394.729156,310.979919 
	C389.171265,321.121338 383.409119,331.635468 377.505341,342.408020 
	C378.742249,344.286072 379.977051,346.820770 383.386261,344.397430 
	C383.917297,344.019989 385.320770,344.315826 385.991333,344.778168 
	C390.481201,347.873840 394.967743,350.990356 399.241852,354.370117 
	C400.140167,355.080475 400.785187,357.100769 400.460358,358.194824 
	C399.146545,362.619659 394.417908,364.285614 390.413605,361.763550 
	C387.635803,360.014008 384.912109,358.053345 382.581604,355.762451 
	C380.996399,354.204163 380.179321,351.881500 378.931824,349.957001 
	C378.024506,348.557281 377.199585,346.913696 375.894836,346.041931 
	C375.237762,345.602905 373.135193,346.265076 372.478607,347.073120 
	C369.785126,350.388031 367.200897,353.834839 365.029480,357.501404 
	C364.470154,358.445862 365.562195,360.368317 366.137421,362.260315 
M417.654816,243.573563 
	C416.464661,242.710068 415.274475,241.846588 414.084320,240.983093 
	C414.986267,239.851639 415.894562,238.725128 416.788544,237.587387 
	C417.816742,236.278763 419.761169,234.853683 419.625610,233.672134 
	C419.443420,232.084152 417.960632,230.114273 416.488892,229.310684 
	C412.904785,227.353714 409.497742,218.978973 411.424225,215.415924 
	C411.828888,214.667557 412.844391,213.968277 413.692200,213.791290 
	C416.710693,213.161179 419.778320,212.766190 423.309937,212.205566 
	C423.917389,214.612671 424.434540,216.655258 424.948090,218.698746 
	C425.471741,220.782349 425.563232,223.136902 426.651367,224.864120 
	C427.497498,226.207184 429.735046,227.646469 431.074219,227.416031 
	C432.269623,227.210312 433.890106,224.776123 433.889343,223.326050 
	C433.887939,220.571274 432.657532,217.840057 432.343079,215.053314 
	C432.172516,213.542053 432.579590,210.700546 433.167755,210.577957 
	C436.513885,209.880508 440.188660,209.036316 443.357819,209.824890 
	C445.438354,210.342575 446.022217,221.504242 444.259949,222.648392 
	C440.243134,225.256348 441.038177,228.222641 443.060486,231.860947 
	C445.957123,231.404755 449.017883,231.347595 451.711548,230.324142 
	C453.115509,229.790695 454.964996,227.366470 454.750000,226.116852 
	C452.921173,215.487122 450.757263,204.910156 448.393921,194.384659 
	C448.150757,193.301697 446.035583,192.373947 444.616608,191.946533 
	C444.023041,191.767746 442.293335,193.043991 442.253387,193.727249 
	C442.025513,197.625580 439.053284,198.086060 436.341583,198.655762 
	C428.221161,200.361755 420.082764,202.000443 411.907593,203.411682 
	C410.347748,203.680969 408.561615,202.882248 406.927063,202.412292 
	C405.067688,201.877686 403.261200,201.159134 401.431732,200.520538 
	C401.135193,202.507339 400.308777,204.586304 400.635559,206.464645 
	C401.911377,213.797562 403.937897,221.013748 404.953308,228.374298 
	C406.060333,236.398895 406.276703,244.543289 407.078857,252.615829 
	C407.221222,254.048508 408.007568,255.863358 409.102844,256.598907 
	C409.837982,257.092590 411.662781,256.052277 412.963074,255.593643 
	C414.607544,255.013611 416.224304,253.769135 417.835693,253.797424 
	C421.762329,253.866364 425.694122,254.932983 429.595490,254.795410 
	C433.719238,254.649979 435.590332,256.482147 435.779205,260.151642 
	C435.976501,263.983612 432.990295,265.357117 429.936218,265.706482 
	C426.325714,266.119446 422.634735,265.868500 418.979279,265.835785 
	C416.202026,265.810913 413.349884,266.114166 411.960297,262.620300 
	C411.649536,261.838928 409.647095,261.170197 408.628967,261.392151 
	C407.663849,261.602539 406.408600,262.962769 406.252991,263.967804 
	C405.645508,267.891693 405.256531,271.871033 405.156586,275.839111 
	C405.125305,277.082581 406.022186,279.163513 406.913849,279.423889 
	C408.225708,279.806946 409.967957,279.047089 411.429718,278.509827 
	C413.727478,277.665314 415.879791,276.027344 418.210693,275.765015 
	C421.617798,275.381500 425.144775,276.205017 428.591980,276.008972 
	C438.876556,275.424072 442.887634,274.750153 442.422241,267.290344 
	C441.922607,259.281433 443.718384,251.764908 443.852509,244.010757 
	C443.875702,242.671814 442.647034,240.254883 441.839478,240.186325 
	C440.337402,240.058792 438.659698,241.183197 437.168182,241.994400 
	C435.868500,242.701263 434.719543,244.439896 433.512817,244.431671 
	C428.425171,244.396957 423.340851,243.879013 417.654816,243.573563 
M77.417732,331.023987 
	C77.560394,331.110016 77.751434,331.162231 77.838654,331.287018 
	C80.270439,334.765564 83.102135,333.265900 85.622482,331.637390 
	C86.750267,330.908630 88.115273,329.114960 87.925163,328.067200 
	C87.485344,325.643127 87.002518,323.034851 82.983711,323.345184 
	C80.323708,323.550659 77.958397,317.586670 79.556503,315.215942 
	C80.406883,313.954407 82.018860,312.787445 83.464226,312.513885 
	C84.244499,312.366211 85.645370,314.038391 86.329758,315.156647 
	C87.626846,317.276093 88.520760,319.637787 89.740578,321.809906 
	C92.739433,327.150024 100.225632,329.590271 104.661942,326.753632 
	C110.693985,322.896667 112.403854,316.697144 108.516151,310.936462 
	C105.999443,307.207275 103.759552,303.919312 103.442169,298.945038 
	C103.070808,293.124908 100.590935,287.447235 99.105812,281.687103 
	C98.268806,278.440735 97.592979,275.152832 96.587708,270.761749 
	C94.507072,272.654480 92.700027,273.508881 92.359909,274.761566 
	C91.478531,278.007843 89.461792,278.774384 86.486046,278.957764 
	C84.025078,279.109406 81.552910,279.681580 79.169403,280.360992 
	C74.355042,281.733398 70.921249,281.274048 69.421898,275.489166 
	C68.493896,271.908722 64.843353,272.264435 62.344349,273.373657 
	C61.238380,273.864594 60.186554,277.705261 60.811863,278.334717 
	C64.351883,281.898102 62.732677,286.175781 63.216511,290.150726 
	C63.454697,292.107605 63.842960,294.097900 64.529343,295.936401 
	C65.559372,298.695404 69.452057,299.210175 70.118553,296.605927 
	C71.257675,292.154968 73.989616,291.721100 77.715118,291.433563 
	C81.312157,291.155884 84.924072,290.316040 88.385803,289.254639 
	C91.779305,288.214111 93.981888,289.603088 94.321823,292.507751 
	C94.504990,294.072906 92.715645,296.679321 91.136589,297.486786 
	C86.577965,299.817932 81.552048,301.228424 76.962784,303.509674 
	C74.952049,304.509155 72.591766,306.482788 72.050491,308.466980 
	C69.855331,316.514130 70.609138,324.217285 77.417732,331.023987 
M57.970436,182.746490 
	C55.915512,189.190140 54.068436,195.710495 51.728603,202.048981 
	C50.298389,205.923401 50.903603,208.036026 55.498363,208.584625 
	C57.954876,203.327454 62.108238,204.970352 66.098335,206.333344 
	C72.505226,208.521912 78.828720,210.959808 85.262688,213.062103 
	C89.195114,214.347046 93.031090,215.398010 91.244308,220.892578 
	C93.389099,221.427139 95.109688,221.855957 96.960541,222.317261 
	C99.122101,216.168945 101.251823,210.303619 103.248474,204.393356 
	C107.965424,190.430786 104.737984,179.897354 90.267204,174.551498 
	C75.029190,168.922211 65.592880,170.417847 57.970436,182.746490 
M383.825287,115.295097 
	C378.883881,119.698311 373.824280,123.977562 369.037140,128.542557 
	C364.941010,132.448578 364.034760,137.661514 365.469208,142.804459 
	C366.594818,146.839935 368.610352,150.784378 370.948578,154.290375 
	C375.271362,160.772156 388.689209,163.133453 394.816650,158.569321 
	C400.765106,154.138519 406.475098,149.374420 412.125641,144.563812 
	C414.183258,142.812027 415.761017,141.662109 418.710205,142.971848 
	C419.994232,143.542114 422.285706,142.297089 423.877655,141.431427 
	C424.327637,141.186752 424.378815,138.998047 423.837006,138.333817 
	C419.914917,133.525757 415.793915,128.880020 411.735901,124.182877 
	C411.147034,124.187508 410.558197,124.192139 409.969330,124.196770 
	C409.523102,126.592072 409.143311,129.002548 408.601501,131.376022 
	C408.344940,132.500031 408.092041,133.943909 407.303101,134.576752 
	C401.181183,139.487732 394.954254,144.269547 388.709290,149.024979 
	C382.942535,153.416260 375.074005,150.046692 374.264893,142.691711 
	C374.051361,140.750488 374.354401,137.960037 375.587677,136.787415 
	C381.327759,131.329651 387.387421,126.191856 393.538940,121.193382 
	C395.246338,119.806023 397.330841,117.710808 400.086670,120.241173 
	C400.677826,120.783966 403.109894,120.365898 403.704529,119.611069 
	C404.553101,118.533806 405.273071,116.192909 404.681305,115.341118 
	C401.863495,111.284935 398.692902,107.450943 395.378143,103.781494 
	C394.681732,103.010559 392.647980,102.761650 391.597046,103.184097 
	C390.479004,103.633507 388.846924,105.479828 389.076660,106.175514 
	C390.652100,110.946564 387.166382,112.632065 383.825287,115.295097 
M121.415672,350.785736 
	C118.235664,351.948517 115.055656,353.111328 111.875648,354.274109 
	C111.674759,353.811493 111.473877,353.348877 111.272987,352.886261 
	C113.982513,348.968628 116.672249,345.037079 119.410553,341.139679 
	C120.637817,339.392944 123.617554,338.111450 121.072372,335.394287 
	C118.830101,333.000519 117.013268,329.392181 112.631599,331.942780 
	C111.213966,332.768005 109.632423,333.413757 108.043961,333.826355 
	C99.922127,335.935791 93.156616,342.520142 83.924805,341.101105 
	C83.053123,340.967133 81.986877,342.098907 80.209656,343.089783 
	C83.757660,348.076263 87.088013,352.756866 90.418365,357.437469 
	C91.003372,357.392609 91.588379,357.347748 92.173393,357.302887 
	C93.196228,355.042084 94.192459,352.768677 95.257240,350.527802 
	C95.599304,349.807953 95.967949,348.854401 96.588539,348.554688 
	C99.765778,347.020447 103.029266,345.664825 106.262611,344.246765 
	C103.338501,349.641632 99.662415,354.065186 96.616127,358.886688 
	C95.654495,360.408691 95.670349,363.402283 96.565216,364.960907 
	C97.227280,366.114044 100.031166,366.357910 101.893402,366.396088 
	C103.282768,366.424561 104.696899,365.489685 106.091698,364.961853 
	C109.890152,363.524353 113.684196,362.075165 117.479988,360.630585 
	C117.731964,360.978241 117.983940,361.325867 118.235916,361.673492 
	C116.252487,364.182007 114.396156,366.810303 112.211243,369.128998 
	C111.520546,369.862000 109.955940,369.787476 108.783272,370.046265 
	C107.399246,370.351746 105.437683,370.166687 104.763420,371.016785 
	C103.943764,372.050171 103.541641,374.297821 104.128922,375.392487 
	C105.668991,378.263062 107.731071,380.886749 109.822479,383.412231 
	C110.666885,384.431946 112.676788,385.831818 113.204262,385.507965 
	C114.599983,384.651093 115.688210,383.061859 116.503433,381.550812 
	C117.476151,379.747864 117.642479,377.419586 118.848457,375.848938 
	C123.177963,370.210114 127.684082,364.694794 132.360184,359.339508 
	C134.534668,356.849213 134.757065,354.930725 133.108994,351.909943 
	C129.887817,346.005798 125.928665,349.597260 121.415672,350.785736 
M252.009766,58.014858 
	C243.117722,58.765030 234.225693,59.515198 224.348557,60.348476 
	C225.703598,62.663723 226.193558,64.775543 227.358047,65.257477 
	C231.235077,66.862000 230.909714,69.954514 231.030945,73.131393 
	C231.220322,78.093193 231.977798,83.063194 231.784149,88.001869 
	C231.561356,93.683929 234.309738,99.953972 228.774261,104.886620 
	C227.886002,105.678139 228.474533,108.126945 228.379868,109.818504 
	C233.880035,109.818504 238.685867,109.970497 243.468719,109.706291 
	C244.594131,109.644127 246.294769,108.340309 246.550140,107.313942 
	C246.830521,106.187103 246.102798,103.949898 245.197189,103.531174 
	C240.398346,101.312294 242.092682,97.840614 242.631882,94.290321 
	C248.574326,96.626152 254.640289,97.128487 258.768585,92.820473 
	C261.783875,89.673912 263.363708,84.582428 264.247070,80.094872 
	C265.593994,73.252533 261.181641,59.204475 252.009766,58.014858 
M240.143738,410.650848 
	C235.233170,404.185883 227.774857,403.184814 220.642273,402.461914 
	C217.203445,402.113373 212.820419,403.396637 210.052704,405.502228 
	C200.435974,412.818359 205.246857,426.233948 213.873337,429.903656 
	C217.494537,431.444214 221.149811,433.267975 224.161743,435.730804 
	C225.771759,437.047241 227.259689,441.505981 226.712341,441.945953 
	C224.431732,443.779053 221.181625,445.878510 218.617722,445.519440 
	C215.301392,445.055023 210.643997,444.480347 210.079178,439.396149 
	C209.564713,434.765198 206.717850,433.797760 202.556107,434.380890 
	C202.039551,437.415710 201.380844,440.323944 201.126328,443.267120 
	C201.028183,444.401794 201.484375,446.148254 202.307037,446.710938 
	C210.021851,451.987640 218.248688,455.315582 227.919266,453.060394 
	C233.303970,451.804718 236.091873,447.954865 237.544479,443.283875 
	C238.989151,438.638367 237.261032,434.290649 233.630829,431.121277 
	C231.171768,428.974365 228.208084,427.404907 225.467194,425.581573 
	C222.611710,423.682007 219.325668,422.200409 216.998184,419.791718 
	C213.736847,416.416656 215.741653,411.738220 220.344086,410.997711 
	C227.643982,409.823181 231.836456,413.176666 233.959305,423.010956 
	C236.446182,422.264832 240.596451,422.087952 241.102631,420.638489 
	C242.064423,417.884247 240.941147,414.401917 240.143738,410.650848 
M370.244690,401.045441 
	C376.821960,399.227142 380.605927,394.654633 381.782227,388.218445 
	C383.435699,379.171295 376.343445,368.228821 367.603973,365.624237 
	C357.819397,362.708160 348.444855,366.896362 344.331818,376.447235 
	C343.588287,378.173798 343.720673,381.512085 344.863922,382.555054 
	C347.117584,384.611115 349.418701,382.836121 350.997223,380.581146 
	C351.848633,379.364807 352.627869,378.084351 353.589600,376.961243 
	C357.177246,372.771637 360.636780,372.652405 365.327148,376.862671 
	C361.466339,380.002960 357.723999,383.187439 353.827515,386.170654 
	C350.835052,388.461761 349.351990,390.408722 352.243408,394.205902 
	C356.407715,399.674683 362.534027,402.560455 370.244690,401.045441 
M165.812851,103.319778 
	C169.558746,101.335701 169.695663,98.764572 167.007889,95.776207 
	C165.455536,94.050262 163.997131,92.202820 162.249954,90.695831 
	C156.143097,85.428520 145.534378,85.697495 141.159851,91.664742 
	C137.109421,97.189911 135.735550,103.444901 138.163284,110.355080 
	C141.022720,118.494057 148.065414,124.584671 155.937759,124.794930 
	C163.986221,125.009903 170.782867,119.856392 173.803802,113.747894 
	C174.474960,112.390762 173.240601,110.091270 172.883606,108.225662 
	C171.234726,108.622765 169.352127,108.650208 167.994812,109.508423 
	C166.208298,110.638016 164.922501,112.526466 163.266052,113.901459 
	C159.407776,117.104156 155.635437,116.449921 153.040268,111.928757 
	C157.058594,109.189026 161.111740,106.425552 165.812851,103.319778 
M59.001450,253.358643 
	C58.286144,259.038574 60.673954,263.520935 65.791664,265.285004 
	C70.492867,266.905518 75.760429,267.547943 80.752167,267.437134 
	C84.344688,267.357361 88.907555,266.341949 91.265015,263.976959 
	C97.370956,257.851532 98.499001,250.033737 95.406601,241.813080 
	C93.396355,236.469177 91.962135,236.012177 86.050011,239.070602 
	C86.829887,241.469604 88.291313,243.954483 88.270866,246.427094 
	C88.246986,249.314606 87.148209,252.280151 86.037384,255.017715 
	C85.712852,255.817505 83.562073,256.535248 82.606575,256.216553 
	C81.807846,255.950180 81.144760,254.133072 81.093246,252.972885 
	C80.893921,248.484070 81.180382,243.964493 80.792404,239.499252 
	C80.684502,238.257416 78.993172,236.292206 77.828911,236.134979 
	C64.728691,234.365692 59.161194,239.298874 59.001450,253.358643 
M199.161942,423.462524 
	C200.079529,421.718262 201.148132,420.035736 201.890610,418.219879 
	C207.406998,404.728546 201.042038,394.171539 186.405441,392.156647 
	C178.126633,391.016968 168.383286,400.270111 168.154770,409.294983 
	C168.022202,414.530151 166.341797,420.270874 171.054535,424.802887 
	C179.321762,432.753174 189.601624,432.508698 199.161942,423.462524 
M329.974274,393.258423 
	C333.325531,392.501282 335.386383,393.799103 336.371735,397.600433 
	C331.883667,400.196533 327.238525,402.660187 322.870758,405.543945 
	C321.534241,406.426361 320.032440,408.575134 320.200745,409.948547 
	C320.815552,414.964722 327.571442,420.732086 333.089386,421.610443 
	C339.803284,422.679199 347.107361,419.347168 350.081360,413.858978 
	C354.494904,405.714264 351.443939,394.426453 342.885773,387.237122 
	C338.094543,383.212280 326.302307,383.758942 320.501251,388.274841 
	C313.960419,393.366547 313.834045,397.711639 319.433380,400.512299 
	C322.918030,398.033203 326.090668,395.776093 329.974274,393.258423 
M107.569679,159.041031 
	C109.897316,155.111420 112.224945,151.181824 114.514374,147.316727 
	C112.928596,145.944092 111.837463,144.949020 110.693832,144.018478 
	C105.697044,139.952713 96.491516,140.266083 91.764175,143.444199 
	C82.357635,149.768082 84.743523,168.268295 96.189362,173.903412 
	C108.469872,179.949432 121.865150,172.620239 123.866150,161.098068 
	C125.055450,154.249863 124.999146,153.784821 117.480309,153.367310 
	C115.503502,164.285385 112.099106,167.423630 103.907181,165.026474 
	C105.086998,163.145020 106.171295,161.415878 107.569679,159.041031 
M290.452545,91.105484 
	C288.654083,91.376450 286.855743,91.874908 285.057159,91.875557 
	C279.750031,91.877457 276.826416,88.003441 278.060608,82.494576 
	C282.231323,83.264503 286.422394,84.008942 290.601410,84.815941 
	C298.497833,86.340782 299.038818,85.958252 299.866089,78.039528 
	C300.521423,71.766586 296.829590,65.099785 291.258698,62.496098 
	C285.160126,59.645786 277.980682,60.889378 273.326599,65.076843 
	C267.684631,70.153214 266.788940,76.563652 266.963531,83.605721 
	C267.163269,91.660408 270.454407,96.710892 278.206238,98.295464 
	C282.427643,99.158348 286.954102,98.859390 291.304993,98.550110 
	C292.558319,98.461014 294.832611,96.179054 294.631195,95.485825 
	C294.151764,93.835938 292.473175,92.534500 290.452545,91.105484 
M205.297363,101.867714 
	C217.589554,101.517494 222.079620,98.697495 224.168091,88.544594 
	C225.689865,81.146576 223.714020,74.585938 218.342957,68.572876 
	C212.673996,62.226284 204.764496,62.690140 198.389740,65.301926 
	C191.863541,67.975761 189.810364,73.639778 190.049042,80.303909 
	C190.131897,82.617180 190.530319,84.922333 190.557037,87.233826 
	C190.650726,95.340958 196.142548,100.281212 205.297363,101.867714 
M141.249313,413.871460 
	C139.370804,414.238953 137.443176,414.448853 135.626556,415.014984 
	C133.496216,415.678955 131.462433,416.652710 129.386749,417.492065 
	C130.360931,419.354095 130.857880,421.953918 132.393860,422.947418 
	C138.292877,426.763031 145.893585,425.620483 150.202408,420.135040 
	C152.513474,417.192932 154.477219,416.220490 157.626007,418.824524 
	C159.043518,415.736572 163.425217,413.394470 158.384003,410.017334 
	C157.998184,409.758820 158.422424,407.860443 158.857895,406.900116 
	C159.659195,405.133087 160.529694,403.312836 161.762756,401.843170 
	C164.641647,398.411804 167.599838,395.014923 170.836212,391.929565 
	C172.369263,390.468048 174.613708,389.752747 177.673035,388.076172 
	C170.921906,383.807343 165.786926,380.560425 160.809952,377.413422 
	C157.480087,379.061432 155.927124,380.820862 158.417450,384.160583 
	C158.987183,384.924591 158.793488,386.831268 158.224518,387.773041 
	C155.584610,392.142548 152.874542,396.500671 149.763016,400.533783 
	C148.915649,401.632111 146.593079,401.621521 144.930206,402.053070 
	C143.343689,402.464783 140.883392,402.313141 140.347473,403.270996 
	C139.653061,404.511993 140.406845,406.619354 140.681198,408.330627 
	C140.954239,410.033661 141.405579,411.708099 141.249313,413.871460 
M138.974823,143.459351 
	C142.806396,140.770889 143.321182,137.567123 140.655914,133.703674 
	C139.628769,132.214783 138.837418,130.544556 138.078339,128.892746 
	C135.391510,123.046066 131.989655,117.369888 130.419846,111.229973 
	C129.542465,107.798271 128.541611,105.631836 125.804565,104.120499 
	C123.140701,106.333992 120.314758,108.109497 118.298210,110.552979 
	C116.882385,112.268524 115.625336,115.120148 116.084045,117.036880 
	C116.409096,118.395096 119.718788,119.039024 122.760468,120.519958 
	C124.333664,123.217773 126.600288,127.104736 129.124878,131.434082 
	C120.446510,130.633865 115.113693,126.444733 112.715424,118.054733 
	C108.496437,122.052505 105.281334,124.912254 102.335266,128.026489 
	C101.629143,128.772934 101.220467,130.835770 101.720177,131.471039 
	C102.740120,132.767670 104.357979,133.817703 105.939209,134.387863 
	C107.608452,134.989746 109.685150,134.525330 111.300133,135.202927 
	C118.003815,138.015564 124.592590,141.101074 131.240295,144.048645 
	C133.643906,145.114410 136.103165,146.606567 138.974823,143.459351 
M428.696381,148.710770 
	C424.821411,147.068222 423.684753,149.353973 423.005829,152.550323 
	C422.721222,153.890152 422.405853,155.825470 421.474518,156.332153 
	C412.792175,161.055664 403.991211,165.563873 395.162842,170.011795 
	C394.330109,170.431366 392.428070,170.416138 392.118866,169.919800 
	C389.697479,166.032944 387.074249,168.447083 383.562042,169.537796 
	C386.831665,176.061691 389.958832,182.301270 393.095154,188.559158 
	C396.518616,187.453171 399.224854,186.784027 398.403320,182.690475 
	C398.238953,181.871384 399.809235,180.307663 400.916077,179.694000 
	C408.290070,175.605530 415.722260,171.617722 423.209351,167.739807 
	C425.789185,166.403595 428.404663,164.763977 431.428955,167.481354 
	C432.173645,168.150467 434.689362,167.630051 435.798065,166.832458 
	C436.513702,166.317612 436.675110,164.055298 436.179443,163.002380 
	C433.997223,158.367004 431.485870,153.886597 428.696381,148.710770 
M178.677185,102.390419 
	C178.268692,103.610008 177.740295,104.804817 177.481873,106.055420 
	C177.154282,107.640686 176.472000,109.529602 177.040741,110.793427 
	C177.433777,111.666809 179.934128,112.398781 181.064194,111.994850 
	C186.145996,110.178459 191.074585,107.933418 196.058441,105.842949 
	C196.193817,105.268532 196.329208,104.694122 196.464584,104.119705 
	C194.564240,102.738960 192.591873,101.445160 190.786484,99.949783 
	C189.358124,98.766708 187.650742,97.564987 186.900299,95.977699 
	C182.585968,86.852173 178.468445,77.632050 174.383484,68.400063 
	C169.823166,58.093792 168.114059,57.548664 158.525360,63.667412 
	C158.385696,63.756535 158.158859,63.786263 158.096573,63.907391 
	C157.557953,64.955048 156.390060,66.261391 156.672348,67.022095 
	C157.186508,68.407646 158.835220,70.644432 159.541443,70.482323 
	C164.549225,69.332832 164.935410,73.471291 166.248840,76.143372 
	C170.418854,84.626892 174.321671,93.241760 178.677185,102.390419 
M149.317123,378.557159 
	C152.665970,372.419495 149.407120,363.843994 142.822479,361.907349 
	C141.865662,361.625946 140.238739,362.227020 139.484650,362.981873 
	C138.375351,364.092377 137.772415,365.708679 136.837860,367.307831 
	C139.871872,369.590698 141.593491,372.114380 138.587585,375.511444 
	C135.757584,378.709686 133.070709,382.041046 130.122253,385.123840 
	C129.341705,385.939972 127.443405,386.770264 126.715256,386.377167 
	C122.062744,383.865784 120.269470,387.256226 117.606644,390.211487 
	C126.330238,394.489899 118.232918,397.847107 117.300110,401.547333 
	C125.583984,407.402557 125.583984,407.402557 130.394363,402.098846 
	C135.447433,404.100067 135.447433,404.100067 138.858658,398.863617 
	C138.042770,397.516327 137.213959,396.147736 136.399963,394.803558 
	C140.713547,389.480408 144.860001,384.363495 149.317123,378.557159 
M320.679230,423.572266 
	C319.145020,423.027496 317.307373,422.846954 316.133759,421.869293 
	C312.688293,418.999176 310.054779,405.212158 311.689941,400.564575 
	C312.647644,397.842651 312.234955,394.796814 308.859436,395.325653 
	C304.065033,396.076782 299.272797,397.700867 294.867462,399.775513 
	C291.898834,401.173584 292.715088,404.113495 295.871918,405.601440 
	C297.358521,406.302094 299.115540,407.356567 299.767273,408.720367 
	C301.467102,412.277466 302.452332,416.169922 304.051514,419.783020 
	C305.368500,422.758453 304.038635,424.539368 301.898132,426.112000 
	C295.898499,430.519897 295.865143,430.569946 299.671417,438.071594 
	C302.563477,436.090332 305.341156,434.187408 308.288330,432.168396 
	C310.466644,433.573761 310.425873,433.451508 318.203796,430.858551 
	C321.972137,429.602264 323.666443,427.881470 320.679230,423.572266 
M327.997009,84.144730 
	C329.286652,82.551880 330.673981,81.027229 331.844452,79.351135 
	C333.897797,76.410774 331.877625,74.144211 329.513672,74.732460 
	C324.070282,76.087029 321.215332,71.653969 317.045410,70.356544 
	C315.160095,69.769958 313.404236,68.654015 311.493744,68.308456 
	C310.506134,68.129829 308.798340,68.820152 308.333405,69.638885 
	C307.728119,70.704758 307.437714,73.052017 308.044281,73.525757 
	C312.191132,76.764404 310.160858,79.760773 308.298737,83.089684 
	C306.937500,85.523155 305.540344,88.160896 305.141693,90.853073 
	C304.614777,94.411491 302.925537,96.050819 299.635498,96.940910 
	C298.590363,97.223679 297.411316,98.767357 297.214020,99.895073 
	C297.043793,100.868095 297.912384,102.685074 298.785461,103.065971 
	C303.005768,104.907150 307.324677,106.592224 311.744598,107.857513 
	C312.862671,108.177574 315.028381,107.096680 315.702087,106.024521 
	C316.283630,105.099045 315.429779,103.271042 315.209229,101.842224 
	C314.926453,100.010414 314.165649,98.092400 314.478027,96.368675 
	C314.880524,94.147705 316.339081,92.141273 316.996979,89.939117 
	C319.012299,83.193634 320.316040,82.393562 327.997009,84.144730 
M346.482178,117.115959 
	C343.956940,115.465218 341.431702,113.814476 338.942230,112.187126 
	C333.327026,119.832809 333.327026,119.832809 343.190399,125.221039 
	C344.419037,122.718460 345.635468,120.240746 346.482178,117.115959 
M261.049683,410.425964 
	C261.980255,419.294006 267.779938,410.926819 271.131866,413.353790 
	C270.751465,410.093933 270.098450,406.375549 268.148499,405.479462 
	C265.242432,404.144043 261.336975,404.662872 261.049683,410.425964 
M430.694000,339.295776 
	C430.076660,340.596375 429.459320,341.896973 428.598755,343.709961 
	C431.797333,343.618500 433.881195,349.489166 437.040039,344.446594 
	C438.448883,342.197571 441.778534,339.557281 437.350922,336.639313 
	C434.151581,334.530792 432.275452,335.323578 430.694000,339.295776 
z"/>
<path fill="#072752" opacity="1.000000" stroke="none" 
	d="
M365.895630,361.841492 
	C365.562195,360.368317 364.470154,358.445862 365.029480,357.501404 
	C367.200897,353.834839 369.785126,350.388031 372.478607,347.073120 
	C373.135193,346.265076 375.237762,345.602905 375.894836,346.041931 
	C377.199585,346.913696 378.024506,348.557281 378.931824,349.957001 
	C380.179321,351.881500 380.996399,354.204163 382.581604,355.762451 
	C384.912109,358.053345 387.635803,360.014008 390.413605,361.763550 
	C394.417908,364.285614 399.146545,362.619659 400.460358,358.194824 
	C400.785187,357.100769 400.140167,355.080475 399.241852,354.370117 
	C394.967743,350.990356 390.481201,347.873840 385.991333,344.778168 
	C385.320770,344.315826 383.917297,344.019989 383.386261,344.397430 
	C379.977051,346.820770 378.742249,344.286072 377.505341,342.408020 
	C383.409119,331.635468 389.171265,321.121338 394.729156,310.979919 
	C394.083008,309.956390 393.948334,309.647827 393.732117,309.415009 
	C391.116150,306.598511 386.527557,303.966583 386.260773,300.949799 
	C385.657043,294.123596 384.245331,286.420258 390.028625,280.705078 
	C391.034637,279.710907 394.052917,279.701355 395.438660,280.483215 
	C396.505463,281.085144 397.079407,283.763367 396.775604,285.301727 
	C396.350708,287.453491 394.650482,289.320404 393.951416,291.458130 
	C392.616089,295.541534 394.583527,297.686188 399.077240,298.506866 
	C399.399811,297.214996 399.879883,296.023254 399.974213,294.801727 
	C400.953583,282.121552 406.581879,280.361206 416.002258,281.067749 
	C423.026581,281.594543 429.177765,284.678223 434.542664,289.687347 
	C438.778839,293.642670 437.989685,306.326935 433.115631,308.393860 
	C432.438568,312.528931 431.869049,316.007202 431.239014,319.855164 
	C419.938812,316.667450 409.551666,313.737274 399.323822,310.852081 
	C397.625610,319.563599 404.366974,320.734039 409.977814,323.013672 
	C412.878845,324.192352 415.675629,325.627594 418.772675,327.064362 
	C421.367523,325.552551 424.010101,321.929779 427.869141,326.518829 
	C426.004578,330.560577 424.021820,334.858582 421.701324,339.888641 
	C417.730713,338.204987 414.009888,336.676758 410.330780,335.054047 
	C406.239197,333.249420 402.073730,331.562927 398.161926,329.420593 
	C396.159576,328.323914 394.250549,327.218262 393.343567,329.843628 
	C392.644592,331.866760 392.311676,335.337280 393.464508,336.438660 
	C397.367676,340.167511 401.879303,343.323547 406.445862,346.249908 
	C407.624329,347.005096 409.876251,345.890289 411.597473,346.047058 
	C413.390472,346.210327 415.309326,346.592285 416.792938,347.500092 
	C417.197266,347.747528 416.541168,350.413361 415.822144,351.649658 
	C414.764801,353.467621 413.376617,355.175385 411.827087,356.601776 
	C410.292023,358.014893 408.382324,359.020996 405.762939,360.798767 
	C405.353455,362.428253 405.302185,365.999756 403.651550,368.526428 
	C399.758423,374.485718 391.798553,375.421326 385.770294,371.264618 
	C383.318512,369.574005 380.756317,367.992310 378.533356,366.033142 
	C375.254852,363.143646 371.819733,361.510040 367.000641,362.806610 
	C366.334564,362.283905 366.112793,362.065033 365.895630,361.841492 
M410.179504,292.426605 
	C404.866974,297.726257 405.999420,302.056152 413.227295,303.994141 
	C415.764099,304.674316 418.409698,305.042297 420.851349,305.962219 
	C424.583160,307.368286 426.909729,305.088623 428.090332,302.557587 
	C428.766388,301.108246 427.651855,298.039398 426.349670,296.596771 
	C422.254028,292.059570 416.847961,290.969238 410.179504,292.426605 
z"/>
<path fill="#02224E" opacity="1.000000" stroke="none" 
	d="
M417.955078,243.555725 
	C423.340851,243.879013 428.425171,244.396957 433.512817,244.431671 
	C434.719543,244.439896 435.868500,242.701263 437.168182,241.994400 
	C438.659698,241.183197 440.337402,240.058792 441.839478,240.186325 
	C442.647034,240.254883 443.875702,242.671814 443.852509,244.010757 
	C443.718384,251.764908 441.922607,259.281433 442.422241,267.290344 
	C442.887634,274.750153 438.876556,275.424072 428.591980,276.008972 
	C425.144775,276.205017 421.617798,275.381500 418.210693,275.765015 
	C415.879791,276.027344 413.727478,277.665314 411.429718,278.509827 
	C409.967957,279.047089 408.225708,279.806946 406.913849,279.423889 
	C406.022186,279.163513 405.125305,277.082581 405.156586,275.839111 
	C405.256531,271.871033 405.645508,267.891693 406.252991,263.967804 
	C406.408600,262.962769 407.663849,261.602539 408.628967,261.392151 
	C409.647095,261.170197 411.649536,261.838928 411.960297,262.620300 
	C413.349884,266.114166 416.202026,265.810913 418.979279,265.835785 
	C422.634735,265.868500 426.325714,266.119446 429.936218,265.706482 
	C432.990295,265.357117 435.976501,263.983612 435.779205,260.151642 
	C435.590332,256.482147 433.719238,254.649979 429.595490,254.795410 
	C425.694122,254.932983 421.762329,253.866364 417.835693,253.797424 
	C416.224304,253.769135 414.607544,255.013611 412.963074,255.593643 
	C411.662781,256.052277 409.837982,257.092590 409.102844,256.598907 
	C408.007568,255.863358 407.221222,254.048508 407.078857,252.615829 
	C406.276703,244.543289 406.060333,236.398895 404.953308,228.374298 
	C403.937897,221.013748 401.911377,213.797562 400.635559,206.464645 
	C400.308777,204.586304 401.135193,202.507339 401.431732,200.520538 
	C403.261200,201.159134 405.067688,201.877686 406.927063,202.412292 
	C408.561615,202.882248 410.347748,203.680969 411.907593,203.411682 
	C420.082764,202.000443 428.221161,200.361755 436.341583,198.655762 
	C439.053284,198.086060 442.025513,197.625580 442.253387,193.727249 
	C442.293335,193.043991 444.023041,191.767746 444.616608,191.946533 
	C446.035583,192.373947 448.150757,193.301697 448.393921,194.384659 
	C450.757263,204.910156 452.921173,215.487122 454.750000,226.116852 
	C454.964996,227.366470 453.115509,229.790695 451.711548,230.324142 
	C449.017883,231.347595 445.957123,231.404755 443.060486,231.860947 
	C441.038177,228.222641 440.243134,225.256348 444.259949,222.648392 
	C446.022217,221.504242 445.438354,210.342575 443.357819,209.824890 
	C440.188660,209.036316 436.513885,209.880508 433.167755,210.577957 
	C432.579590,210.700546 432.172516,213.542053 432.343079,215.053314 
	C432.657532,217.840057 433.887939,220.571274 433.889343,223.326050 
	C433.890106,224.776123 432.269623,227.210312 431.074219,227.416031 
	C429.735046,227.646469 427.497498,226.207184 426.651367,224.864120 
	C425.563232,223.136902 425.471741,220.782349 424.948090,218.698746 
	C424.434540,216.655258 423.917389,214.612671 423.309937,212.205566 
	C419.778320,212.766190 416.710693,213.161179 413.692200,213.791290 
	C412.844391,213.968277 411.828888,214.667557 411.424225,215.415924 
	C409.497742,218.978973 412.904785,227.353714 416.488892,229.310684 
	C417.960632,230.114273 419.443420,232.084152 419.625610,233.672134 
	C419.761169,234.853683 417.816742,236.278763 416.788544,237.587387 
	C415.894562,238.725128 414.986267,239.851639 414.084320,240.983093 
	C415.274475,241.846588 416.464661,242.710068 417.955078,243.555725 
z"/>
<path fill="#052651" opacity="1.000000" stroke="none" 
	d="
M77.146896,330.791016 
	C70.609138,324.217285 69.855331,316.514130 72.050491,308.466980 
	C72.591766,306.482788 74.952049,304.509155 76.962784,303.509674 
	C81.552048,301.228424 86.577965,299.817932 91.136589,297.486786 
	C92.715645,296.679321 94.504990,294.072906 94.321823,292.507751 
	C93.981888,289.603088 91.779305,288.214111 88.385803,289.254639 
	C84.924072,290.316040 81.312157,291.155884 77.715118,291.433563 
	C73.989616,291.721100 71.257675,292.154968 70.118553,296.605927 
	C69.452057,299.210175 65.559372,298.695404 64.529343,295.936401 
	C63.842960,294.097900 63.454697,292.107605 63.216511,290.150726 
	C62.732677,286.175781 64.351883,281.898102 60.811863,278.334717 
	C60.186554,277.705261 61.238380,273.864594 62.344349,273.373657 
	C64.843353,272.264435 68.493896,271.908722 69.421898,275.489166 
	C70.921249,281.274048 74.355042,281.733398 79.169403,280.360992 
	C81.552910,279.681580 84.025078,279.109406 86.486046,278.957764 
	C89.461792,278.774384 91.478531,278.007843 92.359909,274.761566 
	C92.700027,273.508881 94.507072,272.654480 96.587708,270.761749 
	C97.592979,275.152832 98.268806,278.440735 99.105812,281.687103 
	C100.590935,287.447235 103.070808,293.124908 103.442169,298.945038 
	C103.759552,303.919312 105.999443,307.207275 108.516151,310.936462 
	C112.403854,316.697144 110.693985,322.896667 104.661942,326.753632 
	C100.225632,329.590271 92.739433,327.150024 89.740578,321.809906 
	C88.520760,319.637787 87.626846,317.276093 86.329758,315.156647 
	C85.645370,314.038391 84.244499,312.366211 83.464226,312.513885 
	C82.018860,312.787445 80.406883,313.954407 79.556503,315.215942 
	C77.958397,317.586670 80.323708,323.550659 82.983711,323.345184 
	C87.002518,323.034851 87.485344,325.643127 87.925163,328.067200 
	C88.115273,329.114960 86.750267,330.908630 85.622482,331.637390 
	C83.102135,333.265900 80.270439,334.765564 77.838654,331.287018 
	C77.751434,331.162231 77.560394,331.110016 77.146896,330.791016 
M91.622986,310.638885 
	C92.204185,312.176208 92.357521,314.348114 93.469658,315.097961 
	C95.030045,316.150055 97.294670,316.391144 99.276482,316.461639 
	C99.998116,316.487305 101.533463,314.514465 101.406349,314.326447 
	C99.979836,312.216583 98.583961,309.860504 96.558632,308.486023 
	C95.681694,307.890869 93.366753,309.414581 91.622986,310.638885 
z"/>
<path fill="#042550" opacity="1.000000" stroke="none" 
	d="
M58.102848,182.390106 
	C65.592880,170.417847 75.029190,168.922211 90.267204,174.551498 
	C104.737984,179.897354 107.965424,190.430786 103.248474,204.393356 
	C101.251823,210.303619 99.122101,216.168945 96.960541,222.317261 
	C95.109688,221.855957 93.389099,221.427139 91.244308,220.892578 
	C93.031090,215.398010 89.195114,214.347046 85.262688,213.062103 
	C78.828720,210.959808 72.505226,208.521912 66.098335,206.333344 
	C62.108238,204.970352 57.954876,203.327454 55.498363,208.584625 
	C50.903603,208.036026 50.298389,205.923401 51.728603,202.048981 
	C54.068436,195.710495 55.915512,189.190140 58.102848,182.390106 
M78.601166,199.916122 
	C81.549393,200.977005 84.428787,202.499695 87.467628,202.952560 
	C89.896774,203.314560 93.751373,203.271210 94.802094,201.827545 
	C97.029884,198.766602 98.231239,194.994858 95.273666,190.887817 
	C91.436790,185.559738 85.769547,184.068848 80.184540,182.238327 
	C72.183556,179.615906 68.261345,181.530075 64.420616,188.983734 
	C62.361778,192.979294 63.588478,195.239197 67.426308,196.553360 
	C70.863571,197.730362 74.375862,198.688263 78.601166,199.916122 
z"/>
<path fill="#072752" opacity="1.000000" stroke="none" 
	d="
M384.079651,115.041412 
	C387.166382,112.632065 390.652100,110.946564 389.076660,106.175514 
	C388.846924,105.479828 390.479004,103.633507 391.597046,103.184097 
	C392.647980,102.761650 394.681732,103.010559 395.378143,103.781494 
	C398.692902,107.450943 401.863495,111.284935 404.681305,115.341118 
	C405.273071,116.192909 404.553101,118.533806 403.704529,119.611069 
	C403.109894,120.365898 400.677826,120.783966 400.086670,120.241173 
	C397.330841,117.710808 395.246338,119.806023 393.538940,121.193382 
	C387.387421,126.191856 381.327759,131.329651 375.587677,136.787415 
	C374.354401,137.960037 374.051361,140.750488 374.264893,142.691711 
	C375.074005,150.046692 382.942535,153.416260 388.709290,149.024979 
	C394.954254,144.269547 401.181183,139.487732 407.303101,134.576752 
	C408.092041,133.943909 408.344940,132.500031 408.601501,131.376022 
	C409.143311,129.002548 409.523102,126.592072 409.969330,124.196770 
	C410.558197,124.192139 411.147034,124.187508 411.735901,124.182877 
	C415.793915,128.880020 419.914917,133.525757 423.837006,138.333817 
	C424.378815,138.998047 424.327637,141.186752 423.877655,141.431427 
	C422.285706,142.297089 419.994232,143.542114 418.710205,142.971848 
	C415.761017,141.662109 414.183258,142.812027 412.125641,144.563812 
	C406.475098,149.374420 400.765106,154.138519 394.816650,158.569321 
	C388.689209,163.133453 375.271362,160.772156 370.948578,154.290375 
	C368.610352,150.784378 366.594818,146.839935 365.469208,142.804459 
	C364.034760,137.661514 364.941010,132.448578 369.037140,128.542557 
	C373.824280,123.977562 378.883881,119.698311 384.079651,115.041412 
z"/>
<path fill="#082852" opacity="1.000000" stroke="none" 
	d="
M121.762207,350.615234 
	C125.928665,349.597260 129.887817,346.005798 133.108994,351.909943 
	C134.757065,354.930725 134.534668,356.849213 132.360184,359.339508 
	C127.684082,364.694794 123.177963,370.210114 118.848457,375.848938 
	C117.642479,377.419586 117.476151,379.747864 116.503433,381.550812 
	C115.688210,383.061859 114.599983,384.651093 113.204262,385.507965 
	C112.676788,385.831818 110.666885,384.431946 109.822479,383.412231 
	C107.731071,380.886749 105.668991,378.263062 104.128922,375.392487 
	C103.541641,374.297821 103.943764,372.050171 104.763420,371.016785 
	C105.437683,370.166687 107.399246,370.351746 108.783272,370.046265 
	C109.955940,369.787476 111.520546,369.862000 112.211243,369.128998 
	C114.396156,366.810303 116.252487,364.182007 118.235916,361.673492 
	C117.983940,361.325867 117.731964,360.978241 117.479988,360.630585 
	C113.684196,362.075165 109.890152,363.524353 106.091698,364.961853 
	C104.696899,365.489685 103.282768,366.424561 101.893402,366.396088 
	C100.031166,366.357910 97.227280,366.114044 96.565216,364.960907 
	C95.670349,363.402283 95.654495,360.408691 96.616127,358.886688 
	C99.662415,354.065186 103.338501,349.641632 106.262611,344.246765 
	C103.029266,345.664825 99.765778,347.020447 96.588539,348.554688 
	C95.967949,348.854401 95.599304,349.807953 95.257240,350.527802 
	C94.192459,352.768677 93.196228,355.042084 92.173393,357.302887 
	C91.588379,357.347748 91.003372,357.392609 90.418365,357.437469 
	C87.088013,352.756866 83.757660,348.076263 80.209656,343.089783 
	C81.986877,342.098907 83.053123,340.967133 83.924805,341.101105 
	C93.156616,342.520142 99.922127,335.935791 108.043961,333.826355 
	C109.632423,333.413757 111.213966,332.768005 112.631599,331.942780 
	C117.013268,329.392181 118.830101,333.000519 121.072372,335.394287 
	C123.617554,338.111450 120.637817,339.392944 119.410553,341.139679 
	C116.672249,345.037079 113.982513,348.968628 111.272987,352.886261 
	C111.473877,353.348877 111.674759,353.811493 111.875648,354.274109 
	C115.055656,353.111328 118.235664,351.948517 121.762207,350.615234 
z"/>
<path fill="#02224E" opacity="1.000000" stroke="none" 
	d="
M252.421371,58.062378 
	C261.181641,59.204475 265.593994,73.252533 264.247070,80.094872 
	C263.363708,84.582428 261.783875,89.673912 258.768585,92.820473 
	C254.640289,97.128487 248.574326,96.626152 242.631882,94.290321 
	C242.092682,97.840614 240.398346,101.312294 245.197189,103.531174 
	C246.102798,103.949898 246.830521,106.187103 246.550140,107.313942 
	C246.294769,108.340309 244.594131,109.644127 243.468719,109.706291 
	C238.685867,109.970497 233.880035,109.818504 228.379868,109.818504 
	C228.474533,108.126945 227.886002,105.678139 228.774261,104.886620 
	C234.309738,99.953972 231.561356,93.683929 231.784149,88.001869 
	C231.977798,83.063194 231.220322,78.093193 231.030945,73.131393 
	C230.909714,69.954514 231.235077,66.862000 227.358047,65.257477 
	C226.193558,64.775543 225.703598,62.663723 224.348557,60.348476 
	C234.225693,59.515198 243.117722,58.765030 252.421371,58.062378 
M253.946106,73.661415 
	C253.849762,73.006416 253.850403,72.318512 253.641190,71.701813 
	C252.379150,67.981903 249.923828,65.757034 245.832245,66.348534 
	C241.575485,66.963898 240.811401,70.129242 241.108429,73.765228 
	C241.350586,76.729393 241.850189,79.678299 241.972595,82.644821 
	C242.089493,85.477631 243.023163,88.174240 246.024994,87.659599 
	C248.744034,87.193436 252.244720,85.675308 253.455185,83.525520 
	C254.790924,81.153236 253.911346,77.533585 253.946106,73.661415 
z"/>
<path fill="#052551" opacity="1.000000" stroke="none" 
	d="
M240.413788,410.936401 
	C240.941147,414.401917 242.064423,417.884247 241.102631,420.638489 
	C240.596451,422.087952 236.446182,422.264832 233.959305,423.010956 
	C231.836456,413.176666 227.643982,409.823181 220.344086,410.997711 
	C215.741653,411.738220 213.736847,416.416656 216.998184,419.791718 
	C219.325668,422.200409 222.611710,423.682007 225.467194,425.581573 
	C228.208084,427.404907 231.171768,428.974365 233.630829,431.121277 
	C237.261032,434.290649 238.989151,438.638367 237.544479,443.283875 
	C236.091873,447.954865 233.303970,451.804718 227.919266,453.060394 
	C218.248688,455.315582 210.021851,451.987640 202.307037,446.710938 
	C201.484375,446.148254 201.028183,444.401794 201.126328,443.267120 
	C201.380844,440.323944 202.039551,437.415710 202.556107,434.380890 
	C206.717850,433.797760 209.564713,434.765198 210.079178,439.396149 
	C210.643997,444.480347 215.301392,445.055023 218.617722,445.519440 
	C221.181625,445.878510 224.431732,443.779053 226.712341,441.945953 
	C227.259689,441.505981 225.771759,437.047241 224.161743,435.730804 
	C221.149811,433.267975 217.494537,431.444214 213.873337,429.903656 
	C205.246857,426.233948 200.435974,412.818359 210.052704,405.502228 
	C212.820419,403.396637 217.203445,402.113373 220.642273,402.461914 
	C227.774857,403.184814 235.233170,404.185883 240.413788,410.936401 
z"/>
<path fill="#072752" opacity="1.000000" stroke="none" 
	d="
M369.855530,401.122925 
	C362.534027,402.560455 356.407715,399.674683 352.243408,394.205902 
	C349.351990,390.408722 350.835052,388.461761 353.827515,386.170654 
	C357.723999,383.187439 361.466339,380.002960 365.327148,376.862671 
	C360.636780,372.652405 357.177246,372.771637 353.589600,376.961243 
	C352.627869,378.084351 351.848633,379.364807 350.997223,380.581146 
	C349.418701,382.836121 347.117584,384.611115 344.863922,382.555054 
	C343.720673,381.512085 343.588287,378.173798 344.331818,376.447235 
	C348.444855,366.896362 357.819397,362.708160 367.603973,365.624237 
	C376.343445,368.228821 383.435699,379.171295 381.782227,388.218445 
	C380.605927,394.654633 376.821960,399.227142 369.855530,401.122925 
M368.048981,391.972076 
	C374.012451,389.579865 374.627075,387.104675 370.048187,382.912964 
	C367.505219,385.037048 364.942596,387.177551 361.504364,390.049469 
	C364.175415,390.976532 365.779022,391.533112 368.048981,391.972076 
z"/>
<path fill="#072752" opacity="1.000000" stroke="none" 
	d="
M165.488861,103.490929 
	C161.111740,106.425552 157.058594,109.189026 153.040268,111.928757 
	C155.635437,116.449921 159.407776,117.104156 163.266052,113.901459 
	C164.922501,112.526466 166.208298,110.638016 167.994812,109.508423 
	C169.352127,108.650208 171.234726,108.622765 172.883606,108.225662 
	C173.240601,110.091270 174.474960,112.390762 173.803802,113.747894 
	C170.782867,119.856392 163.986221,125.009903 155.937759,124.794930 
	C148.065414,124.584671 141.022720,118.494057 138.163284,110.355080 
	C135.735550,103.444901 137.109421,97.189911 141.159851,91.664742 
	C145.534378,85.697495 156.143097,85.428520 162.249954,90.695831 
	C163.997131,92.202820 165.455536,94.050262 167.007889,95.776207 
	C169.695663,98.764572 169.558746,101.335701 165.488861,103.490929 
M147.377182,98.489273 
	C147.377182,100.451279 147.377182,102.413277 147.377182,105.363388 
	C150.277527,103.983109 152.309418,103.338158 153.917145,102.129166 
	C154.867950,101.414162 155.907028,99.051704 155.593857,98.737228 
	C154.456421,97.595078 152.830338,96.604568 151.259384,96.348145 
	C150.229340,96.180008 148.976913,97.374199 147.377182,98.489273 
z"/>
<path fill="#042450" opacity="1.000000" stroke="none" 
	d="
M59.007095,252.908813 
	C59.161194,239.298874 64.728691,234.365692 77.828911,236.134979 
	C78.993172,236.292206 80.684502,238.257416 80.792404,239.499252 
	C81.180382,243.964493 80.893921,248.484070 81.093246,252.972885 
	C81.144760,254.133072 81.807846,255.950180 82.606575,256.216553 
	C83.562073,256.535248 85.712852,255.817505 86.037384,255.017715 
	C87.148209,252.280151 88.246986,249.314606 88.270866,246.427094 
	C88.291313,243.954483 86.829887,241.469604 86.050011,239.070602 
	C91.962135,236.012177 93.396355,236.469177 95.406601,241.813080 
	C98.499001,250.033737 97.370956,257.851532 91.265015,263.976959 
	C88.907555,266.341949 84.344688,267.357361 80.752167,267.437134 
	C75.760429,267.547943 70.492867,266.905518 65.791664,265.285004 
	C60.673954,263.520935 58.286144,259.038574 59.007095,252.908813 
M67.327423,249.149826 
	C66.905571,255.267212 67.707619,256.286804 74.285378,256.604553 
	C73.775284,253.191895 73.293648,249.969681 72.812019,246.747482 
	C71.092857,247.311874 69.373695,247.876266 67.327423,249.149826 
z"/>
<path fill="#042550" opacity="1.000000" stroke="none" 
	d="
M198.906555,423.722137 
	C189.601624,432.508698 179.321762,432.753174 171.054535,424.802887 
	C166.341797,420.270874 168.022202,414.530151 168.154770,409.294983 
	C168.383286,400.270111 178.126633,391.016968 186.405441,392.156647 
	C201.042038,394.171539 207.406998,404.728546 201.890610,418.219879 
	C201.148132,420.035736 200.079529,421.718262 198.906555,423.722137 
M178.172684,417.973816 
	C180.785202,423.447479 184.292450,424.559509 187.852509,420.135101 
	C190.621674,416.693634 192.558609,412.199219 193.521988,407.873596 
	C193.916489,406.102325 191.156097,403.000641 189.094391,401.553497 
	C187.921173,400.729980 184.826172,401.418213 183.349548,402.476379 
	C178.354904,406.055664 177.895721,411.576080 178.172684,417.973816 
z"/>
<path fill="#062651" opacity="1.000000" stroke="none" 
	d="
M329.618774,393.388702 
	C326.090668,395.776093 322.918030,398.033203 319.433380,400.512299 
	C313.834045,397.711639 313.960419,393.366547 320.501251,388.274841 
	C326.302307,383.758942 338.094543,383.212280 342.885773,387.237122 
	C351.443939,394.426453 354.494904,405.714264 350.081360,413.858978 
	C347.107361,419.347168 339.803284,422.679199 333.089386,421.610443 
	C327.571442,420.732086 320.815552,414.964722 320.200745,409.948547 
	C320.032440,408.575134 321.534241,406.426361 322.870758,405.543945 
	C327.238525,402.660187 331.883667,400.196533 336.371735,397.600433 
	C335.386383,393.799103 333.325531,392.501282 329.618774,393.388702 
M339.778748,412.255920 
	C342.277618,410.240265 344.798737,407.609711 341.167114,405.226105 
	C339.896576,404.392181 336.291290,406.770844 333.979675,408.083130 
	C333.308441,408.464203 332.887665,410.486206 333.279663,411.319885 
	C334.555847,414.034149 336.854584,413.733704 339.778748,412.255920 
z"/>
<path fill="#052651" opacity="1.000000" stroke="none" 
	d="
M107.412636,159.363892 
	C106.171295,161.415878 105.086998,163.145020 103.907181,165.026474 
	C112.099106,167.423630 115.503502,164.285385 117.480309,153.367310 
	C124.999146,153.784821 125.055450,154.249863 123.866150,161.098068 
	C121.865150,172.620239 108.469872,179.949432 96.189362,173.903412 
	C84.743523,168.268295 82.357635,149.768082 91.764175,143.444199 
	C96.491516,140.266083 105.697044,139.952713 110.693832,144.018478 
	C111.837463,144.949020 112.928596,145.944092 114.514374,147.316727 
	C112.224945,151.181824 109.897316,155.111420 107.412636,159.363892 
M94.294739,154.060608 
	C94.980453,156.099533 95.666168,158.138443 96.351891,160.177368 
	C98.774002,157.678894 101.196114,155.180420 103.645172,152.654160 
	C99.417587,148.731873 96.874931,150.343140 94.294739,154.060608 
z"/>
<path fill="#04244F" opacity="1.000000" stroke="none" 
	d="
M290.865784,91.098892 
	C292.473175,92.534500 294.151764,93.835938 294.631195,95.485825 
	C294.832611,96.179054 292.558319,98.461014 291.304993,98.550110 
	C286.954102,98.859390 282.427643,99.158348 278.206238,98.295464 
	C270.454407,96.710892 267.163269,91.660408 266.963531,83.605721 
	C266.788940,76.563652 267.684631,70.153214 273.326599,65.076843 
	C277.980682,60.889378 285.160126,59.645786 291.258698,62.496098 
	C296.829590,65.099785 300.521423,71.766586 299.866089,78.039528 
	C299.038818,85.958252 298.497833,86.340782 290.601410,84.815941 
	C286.422394,84.008942 282.231323,83.264503 278.060608,82.494576 
	C276.826416,88.003441 279.750031,91.877457 285.057159,91.875557 
	C286.855743,91.874908 288.654083,91.376450 290.865784,91.098892 
M290.262543,75.345520 
	C288.626282,73.364609 287.283569,70.912979 285.216034,69.623650 
	C284.331146,69.071815 281.679626,70.654716 280.353516,71.848351 
	C279.814911,72.333130 280.518097,75.462585 280.911682,75.516281 
	C283.862152,75.918762 286.876465,75.853073 290.262543,75.345520 
z"/>
<path fill="#042550" opacity="1.000000" stroke="none" 
	d="
M204.971222,101.824654 
	C196.142548,100.281212 190.650726,95.340958 190.557037,87.233826 
	C190.530319,84.922333 190.131897,82.617180 190.049042,80.303909 
	C189.810364,73.639778 191.863541,67.975761 198.389740,65.301926 
	C204.764496,62.690140 212.673996,62.226284 218.342957,68.572876 
	C223.714020,74.585938 225.689865,81.146576 224.168091,88.544594 
	C222.079620,98.697495 217.589554,101.517494 204.971222,101.824654 
M200.832275,86.541702 
	C202.366287,90.181091 203.334076,94.622292 208.794037,93.674545 
	C213.023315,92.940422 215.945206,88.737411 214.779266,84.325127 
	C213.832611,80.742668 212.163177,77.136864 209.980560,74.150803 
	C207.380142,70.593109 201.078690,71.860474 200.061340,76.193893 
	C199.354370,79.205284 200.292328,82.602867 200.832275,86.541702 
z"/>
<path fill="#072752" opacity="1.000000" stroke="none" 
	d="
M141.514023,413.633270 
	C141.405579,411.708099 140.954239,410.033661 140.681198,408.330627 
	C140.406845,406.619354 139.653061,404.511993 140.347473,403.270996 
	C140.883392,402.313141 143.343689,402.464783 144.930206,402.053070 
	C146.593079,401.621521 148.915649,401.632111 149.763016,400.533783 
	C152.874542,396.500671 155.584610,392.142548 158.224518,387.773041 
	C158.793488,386.831268 158.987183,384.924591 158.417450,384.160583 
	C155.927124,380.820862 157.480087,379.061432 160.809952,377.413422 
	C165.786926,380.560425 170.921906,383.807343 177.673035,388.076172 
	C174.613708,389.752747 172.369263,390.468048 170.836212,391.929565 
	C167.599838,395.014923 164.641647,398.411804 161.762756,401.843170 
	C160.529694,403.312836 159.659195,405.133087 158.857895,406.900116 
	C158.422424,407.860443 157.998184,409.758820 158.384003,410.017334 
	C163.425217,413.394470 159.043518,415.736572 157.626007,418.824524 
	C154.477219,416.220490 152.513474,417.192932 150.202408,420.135040 
	C145.893585,425.620483 138.292877,426.763031 132.393860,422.947418 
	C130.857880,421.953918 130.360931,419.354095 129.386749,417.492065 
	C131.462433,416.652710 133.496216,415.678955 135.626556,415.014984 
	C137.443176,414.448853 139.370804,414.238953 141.514023,413.633270 
z"/>
<path fill="#072752" opacity="1.000000" stroke="none" 
	d="
M138.723480,143.699387 
	C136.103165,146.606567 133.643906,145.114410 131.240295,144.048645 
	C124.592590,141.101074 118.003815,138.015564 111.300133,135.202927 
	C109.685150,134.525330 107.608452,134.989746 105.939209,134.387863 
	C104.357979,133.817703 102.740120,132.767670 101.720177,131.471039 
	C101.220467,130.835770 101.629143,128.772934 102.335266,128.026489 
	C105.281334,124.912254 108.496437,122.052505 112.715424,118.054733 
	C115.113693,126.444733 120.446510,130.633865 129.124878,131.434082 
	C126.600288,127.104736 124.333664,123.217773 122.760468,120.519958 
	C119.718788,119.039024 116.409096,118.395096 116.084045,117.036880 
	C115.625336,115.120148 116.882385,112.268524 118.298210,110.552979 
	C120.314758,108.109497 123.140701,106.333992 125.804565,104.120499 
	C128.541611,105.631836 129.542465,107.798271 130.419846,111.229973 
	C131.989655,117.369888 135.391510,123.046066 138.078339,128.892746 
	C138.837418,130.544556 139.628769,132.214783 140.655914,133.703674 
	C143.321182,137.567123 142.806396,140.770889 138.723480,143.699387 
z"/>
<path fill="#082853" opacity="1.000000" stroke="none" 
	d="
M428.895081,149.030396 
	C431.485870,153.886597 433.997223,158.367004 436.179443,163.002380 
	C436.675110,164.055298 436.513702,166.317612 435.798065,166.832458 
	C434.689362,167.630051 432.173645,168.150467 431.428955,167.481354 
	C428.404663,164.763977 425.789185,166.403595 423.209351,167.739807 
	C415.722260,171.617722 408.290070,175.605530 400.916077,179.694000 
	C399.809235,180.307663 398.238953,181.871384 398.403320,182.690475 
	C399.224854,186.784027 396.518616,187.453171 393.095154,188.559158 
	C389.958832,182.301270 386.831665,176.061691 383.562042,169.537796 
	C387.074249,168.447083 389.697479,166.032944 392.118866,169.919800 
	C392.428070,170.416138 394.330109,170.431366 395.162842,170.011795 
	C403.991211,165.563873 412.792175,161.055664 421.474518,156.332153 
	C422.405853,155.825470 422.721222,153.890152 423.005829,152.550323 
	C423.684753,149.353973 424.821411,147.068222 428.895081,149.030396 
z"/>
<path fill="#072752" opacity="1.000000" stroke="none" 
	d="
M178.502472,102.098137 
	C174.321671,93.241760 170.418854,84.626892 166.248840,76.143372 
	C164.935410,73.471291 164.549225,69.332832 159.541443,70.482323 
	C158.835220,70.644432 157.186508,68.407646 156.672348,67.022095 
	C156.390060,66.261391 157.557953,64.955048 158.096573,63.907391 
	C158.158859,63.786263 158.385696,63.756535 158.525360,63.667412 
	C168.114059,57.548664 169.823166,58.093792 174.383484,68.400063 
	C178.468445,77.632050 182.585968,86.852173 186.900299,95.977699 
	C187.650742,97.564987 189.358124,98.766708 190.786484,99.949783 
	C192.591873,101.445160 194.564240,102.738960 196.464584,104.119705 
	C196.329208,104.694122 196.193817,105.268532 196.058441,105.842949 
	C191.074585,107.933418 186.145996,110.178459 181.064194,111.994850 
	C179.934128,112.398781 177.433777,111.666809 177.040741,110.793427 
	C176.472000,109.529602 177.154282,107.640686 177.481873,106.055420 
	C177.740295,104.804817 178.268692,103.610008 178.502472,102.098137 
z"/>
<path fill="#0A2A54" opacity="1.000000" stroke="none" 
	d="
M149.161789,378.901855 
	C144.860001,384.363495 140.713547,389.480408 136.399963,394.803558 
	C137.213959,396.147736 138.042770,397.516327 138.858658,398.863617 
	C135.447433,404.100067 135.447433,404.100067 130.394363,402.098846 
	C125.583984,407.402557 125.583984,407.402557 117.300110,401.547333 
	C118.232918,397.847107 126.330238,394.489899 117.606644,390.211487 
	C120.269470,387.256226 122.062744,383.865784 126.715256,386.377167 
	C127.443405,386.770264 129.341705,385.939972 130.122253,385.123840 
	C133.070709,382.041046 135.757584,378.709686 138.587585,375.511444 
	C141.593491,372.114380 139.871872,369.590698 136.837860,367.307831 
	C137.772415,365.708679 138.375351,364.092377 139.484650,362.981873 
	C140.238739,362.227020 141.865662,361.625946 142.822479,361.907349 
	C149.407120,363.843994 152.665970,372.419495 149.161789,378.901855 
z"/>
<path fill="#052651" opacity="1.000000" stroke="none" 
	d="
M320.953857,423.825073 
	C323.666443,427.881470 321.972137,429.602264 318.203796,430.858551 
	C310.425873,433.451508 310.466644,433.573761 308.288330,432.168396 
	C305.341156,434.187408 302.563477,436.090332 299.671417,438.071594 
	C295.865143,430.569946 295.898499,430.519897 301.898132,426.112000 
	C304.038635,424.539368 305.368500,422.758453 304.051514,419.783020 
	C302.452332,416.169922 301.467102,412.277466 299.767273,408.720367 
	C299.115540,407.356567 297.358521,406.302094 295.871918,405.601440 
	C292.715088,404.113495 291.898834,401.173584 294.867462,399.775513 
	C299.272797,397.700867 304.065033,396.076782 308.859436,395.325653 
	C312.234955,394.796814 312.647644,397.842651 311.689941,400.564575 
	C310.054779,405.212158 312.688293,418.999176 316.133759,421.869293 
	C317.307373,422.846954 319.145020,423.027496 320.953857,423.825073 
z"/>
<path fill="#052551" opacity="1.000000" stroke="none" 
	d="
M327.695557,84.090683 
	C320.316040,82.393562 319.012299,83.193634 316.996979,89.939117 
	C316.339081,92.141273 314.880524,94.147705 314.478027,96.368675 
	C314.165649,98.092400 314.926453,100.010414 315.209229,101.842224 
	C315.429779,103.271042 316.283630,105.099045 315.702087,106.024521 
	C315.028381,107.096680 312.862671,108.177574 311.744598,107.857513 
	C307.324677,106.592224 303.005768,104.907150 298.785461,103.065971 
	C297.912384,102.685074 297.043793,100.868095 297.214020,99.895073 
	C297.411316,98.767357 298.590363,97.223679 299.635498,96.940910 
	C302.925537,96.050819 304.614777,94.411491 305.141693,90.853073 
	C305.540344,88.160896 306.937500,85.523155 308.298737,83.089684 
	C310.160858,79.760773 312.191132,76.764404 308.044281,73.525757 
	C307.437714,73.052017 307.728119,70.704758 308.333405,69.638885 
	C308.798340,68.820152 310.506134,68.129829 311.493744,68.308456 
	C313.404236,68.654015 315.160095,69.769958 317.045410,70.356544 
	C321.215332,71.653969 324.070282,76.087029 329.513672,74.732460 
	C331.877625,74.144211 333.897797,76.410774 331.844452,79.351135 
	C330.673981,81.027229 329.286652,82.551880 327.695557,84.090683 
z"/>
<path fill="#0E2D57" opacity="1.000000" stroke="none" 
	d="
M346.667053,117.439499 
	C345.635468,120.240746 344.419037,122.718460 343.190399,125.221039 
	C333.327026,119.832809 333.327026,119.832809 338.942230,112.187126 
	C341.431702,113.814476 343.956940,115.465218 346.667053,117.439499 
z"/>
<path fill="#01224E" opacity="1.000000" stroke="none" 
	d="
M261.059814,410.022339 
	C261.336975,404.662872 265.242432,404.144043 268.148499,405.479462 
	C270.098450,406.375549 270.751465,410.093933 271.131866,413.353790 
	C267.779938,410.926819 261.980255,419.294006 261.059814,410.022339 
z"/>
<path fill="#0A2A54" opacity="1.000000" stroke="none" 
	d="
M430.818604,338.949158 
	C432.275452,335.323578 434.151581,334.530792 437.350922,336.639313 
	C441.778534,339.557281 438.448883,342.197571 437.040039,344.446594 
	C433.881195,349.489166 431.797333,343.618500 428.598755,343.709961 
	C429.459320,341.896973 430.076660,340.596375 430.818604,338.949158 
z"/>
<path fill="#062651" opacity="1.000000" stroke="none" 
	d="
M366.016541,362.050903 
	C366.112793,362.065033 366.334564,362.283905 366.728394,362.656525 
	C366.573120,362.725891 366.320312,362.541046 366.016541,362.050903 
z"/>
<path fill="#000000" opacity="1.000000" stroke="none" 
	d="
M410.558105,292.307007 
	C416.847961,290.969238 422.254028,292.059570 426.349670,296.596771 
	C427.651855,298.039398 428.766388,301.108246 428.090332,302.557587 
	C426.909729,305.088623 424.583160,307.368286 420.851349,305.962219 
	C418.409698,305.042297 415.764099,304.674316 413.227295,303.994141 
	C405.999420,302.056152 404.866974,297.726257 410.558105,292.307007 
z"/>
<path fill="#000000" opacity="1.000000" stroke="none" 
	d="
M91.663986,310.307373 
	C93.366753,309.414581 95.681694,307.890869 96.558632,308.486023 
	C98.583961,309.860504 99.979836,312.216583 101.406349,314.326447 
	C101.533463,314.514465 99.998116,316.487305 99.276482,316.461639 
	C97.294670,316.391144 95.030045,316.150055 93.469658,315.097961 
	C92.357521,314.348114 92.204185,312.176208 91.663986,310.307373 
z"/>
<path fill="#000000" opacity="1.000000" stroke="none" 
	d="
M78.228104,199.829483 
	C74.375862,198.688263 70.863571,197.730362 67.426308,196.553360 
	C63.588478,195.239197 62.361778,192.979294 64.420616,188.983734 
	C68.261345,181.530075 72.183556,179.615906 80.184540,182.238327 
	C85.769547,184.068848 91.436790,185.559738 95.273666,190.887817 
	C98.231239,194.994858 97.029884,198.766602 94.802094,201.827545 
	C93.751373,203.271210 89.896774,203.314560 87.467628,202.952560 
	C84.428787,202.499695 81.549393,200.977005 78.228104,199.829483 
z"/>
<path fill="#000000" opacity="1.000000" stroke="none" 
	d="
M253.971405,74.059341 
	C253.911346,77.533585 254.790924,81.153236 253.455185,83.525520 
	C252.244720,85.675308 248.744034,87.193436 246.024994,87.659599 
	C243.023163,88.174240 242.089493,85.477631 241.972595,82.644821 
	C241.850189,79.678299 241.350586,76.729393 241.108429,73.765228 
	C240.811401,70.129242 241.575485,66.963898 245.832245,66.348534 
	C249.923828,65.757034 252.379150,67.981903 253.641190,71.701813 
	C253.850403,72.318512 253.849762,73.006416 253.971405,74.059341 
z"/>
<path fill="#000000" opacity="1.000000" stroke="none" 
	d="
M367.715820,392.030884 
	C365.779022,391.533112 364.175415,390.976532 361.504364,390.049469 
	C364.942596,387.177551 367.505219,385.037048 370.048187,382.912964 
	C374.627075,387.104675 374.012451,389.579865 367.715820,392.030884 
z"/>
<path fill="#000000" opacity="1.000000" stroke="none" 
	d="
M147.600632,98.223763 
	C148.976913,97.374199 150.229340,96.180008 151.259384,96.348145 
	C152.830338,96.604568 154.456421,97.595078 155.593857,98.737228 
	C155.907028,99.051704 154.867950,101.414162 153.917145,102.129166 
	C152.309418,103.338158 150.277527,103.983109 147.377182,105.363388 
	C147.377182,102.413277 147.377182,100.451279 147.600632,98.223763 
z"/>
<path fill="#000000" opacity="1.000000" stroke="none" 
	d="
M67.490974,248.795227 
	C69.373695,247.876266 71.092857,247.311874 72.812019,246.747482 
	C73.293648,249.969681 73.775284,253.191895 74.285378,256.604553 
	C67.707619,256.286804 66.905571,255.267212 67.490974,248.795227 
z"/>
<path fill="#000000" opacity="1.000000" stroke="none" 
	d="
M178.124146,417.580017 
	C177.895721,411.576080 178.354904,406.055664 183.349548,402.476379 
	C184.826172,401.418213 187.921173,400.729980 189.094391,401.553497 
	C191.156097,403.000641 193.916489,406.102325 193.521988,407.873596 
	C192.558609,412.199219 190.621674,416.693634 187.852509,420.135101 
	C184.292450,424.559509 180.785202,423.447479 178.124146,417.580017 
z"/>
<path fill="#000000" opacity="1.000000" stroke="none" 
	d="
M339.476318,412.443298 
	C336.854584,413.733704 334.555847,414.034149 333.279663,411.319885 
	C332.887665,410.486206 333.308441,408.464203 333.979675,408.083130 
	C336.291290,406.770844 339.896576,404.392181 341.167114,405.226105 
	C344.798737,407.609711 342.277618,410.240265 339.476318,412.443298 
z"/>
<path fill="#000000" opacity="1.000000" stroke="none" 
	d="
M94.434036,153.711517 
	C96.874931,150.343140 99.417587,148.731873 103.645172,152.654160 
	C101.196114,155.180420 98.774002,157.678894 96.351883,160.177368 
	C95.666168,158.138443 94.980453,156.099533 94.434036,153.711517 
z"/>
<path fill="#000000" opacity="1.000000" stroke="none" 
	d="
M290.066681,75.639725 
	C286.876465,75.853073 283.862152,75.918762 280.911682,75.516281 
	C280.518097,75.462585 279.814911,72.333130 280.353516,71.848351 
	C281.679626,70.654716 284.331146,69.071815 285.216034,69.623650 
	C287.283569,70.912979 288.626282,73.364609 290.066681,75.639725 
z"/>
<path fill="#000000" opacity="1.000000" stroke="none" 
	d="
M200.663849,86.184807 
	C200.292328,82.602867 199.354370,79.205284 200.061340,76.193893 
	C201.078690,71.860474 207.380142,70.593109 209.980560,74.150803 
	C212.163177,77.136864 213.832611,80.742668 214.779266,84.325127 
	C215.945206,88.737411 213.023315,92.940422 208.794037,93.674545 
	C203.334076,94.622292 202.366287,90.181091 200.663849,86.184807 
z"/>
</svg>